<svg id="Layer_1" data-name="Layer 1" xmlns="http://www.w3.org/2000/svg" viewBox="0 0 512 512"><title>increase-volume-handdrawn</title><path d="M150.77,353.48c-2.7,4.69,136.29,69.76,132.36,76.58-4.53,7.87-132.45-81.32-135.05-76.81-5.21,9,140,69.22,134.9,78-4.7,8.16-128.43-78.21-132.12-71.81-2.5,4.33,140.37,73.83,137.18,79.37-4.64,8.06-127.08-79.61-130.73-73.28-4.24,7.36,135.45,66.22,130.2,75.33-3.72,6.46-112.8-70.37-117.31-62.55s111.35,56.75,108,62.5c-3.07,5.33-88.38-50.41-90.64-46.5s92,46.5,89.1,51.55c-1.82,3.16-89.28-55.55-91-52.53-2.52,4.37,95.14,48.34,92.24,53.37-2.32,4-88.07-53.27-89.76-50.33-3.79,6.57,100.73,50.49,97.36,56.33-2.72,4.73-86.54-48.91-88.1-46.19-3,5.16,94.05,48.93,91.68,53-3.13,5.44-91-56.81-93.49-52.56-3,5.26,86.3,44.33,83.88,48.53-1.58,2.74-65.24-38-67.86-33.42-2.12,3.69,74.76,36.32,71.77,41.52-1.32,2.29-69.13-44.41-71.18-40.85-1.79,3.1,66.25,33.78,64.28,37.19-2.52,4.37-62.08-36.88-63.31-34.73-1.64,2.84,70.81,35.66,68.52,39.64-1.81,3.13-60.85-37-63.31-32.78s61.91,29.46,59.16,34.23c-1,1.8-46.6-29.37-47.87-27.16-2.05,3.56,46.76,22.09,44.61,25.81-1.67,2.91-44.26-24.41-45.22-22.74-1.8,3.12,54.56,27.19,52.67,30.47-1.31,2.28-37.74-19.51-39.09-17.17-1.59,2.76,31.91,15.95,30.82,17.83-.44.77-18.64-9.25-19-8.55-1,1.75,26.16,11.56,24.62,14.24-.7,1.21-19.59-7.09-20-6.37-.56,1,8.37,3.1,7.62,4.41-.3.52-11.25-7-11.51-6.57-.8,1.38,15.28,7.55,14.72,8.52-.17.3-5-.84-5.13-.63-.48.84,4.46,1.61,4,2.34-.1.18-3.22,2.09-3.34,2.3s5.86,3.18,5.77,3.34-4.47-2.26-4.59-2.06,3.81,2.1,3.77,2.18" fill="none" stroke="#999" stroke-linecap="round" stroke-linejoin="round" stroke-width="1.2"/><path d="M275.26,25.64c-.09.15,6.76,3.63,6.64,3.84s-4.38,3.95-4.5,4.15c-.42.73,7.36,3.15,6.88,4-.34.59-11.1-3.07-11.44-2.48-.55,1,12.22,4.78,11.23,6.5-.56,1-18.14-11.1-18.83-9.9s21.72,11,21.05,12.18c-.56,1-18.27-10.79-18.6-10.22-.92,1.59,20.89,10.2,20.08,11.62-.58,1-18-9.11-18.5-8.3-.57,1,6.09,2.1,5.47,3.17-.26.44-10.74-.79-11-.41-1.25,2.17,19.79,8.9,18.68,10.81-.67,1.17-23.75-8.24-24.36-7.19-.86,1.5,29.24,14.59,28.24,16.34-.72,1.25-28.1-14.18-28.63-13.26-1.23,2.13,23.21,10.59,22,12.72-1,1.8-28.81-13.74-29.73-12.13-1.3,2.26,41.14,21.08,40,23.12s-32.71-15.27-33.8-13.39c-1.72,3,29.55,13.95,28.19,16.31-.75,1.3-29.68-18.17-30.38-16.94-1.57,2.73,26.47,11.62,24.88,14.39-.93,1.61-37.35-17.52-38.2-16-1,1.69,37.23,17.25,35.38,20.47-.54.94-24.15-10-25.06-8.45-1.59,2.76,27.38,13.27,26.27,15.2-.69,1.2-27.42-17-28.17-15.71-1,1.72,33,15.61,31.5,18.23s-42.17-26.69-43.28-24.77C236.35,61,284.2,84.07,283.1,86c-1.65,2.86-42.33-24.13-43.24-22.56-1.2,2.08,45.78,22.19,43.92,25.41-1.14,2-36.44-22.76-37.22-21.39-1.31,2.28,40.83,19.16,38.9,22.51-1.36,2.36-52.33-26.5-53.65-24.21-1.78,3.09,50.7,24.8,48.75,28.2-1.62,2.82-40.95-25.36-41.71-24-2.31,4,38.23,17.72,36.33,21-1.49,2.59-42.54-22.48-43.38-21-1.89,3.28,45.29,23.35,44.06,25.49-1.55,2.69-45.41-28.38-47-25.68-2.46,4.26,61.46,31.72,59.8,34.6-1.34,2.32-57-30.37-58.53-27.74-1.82,3.17,56.35,29.26,54.91,31.77-1.17,2-56.55-31-58.64-27.41-2.33,4.05,56.3,29.06,54.78,31.69-1.23,2.13-59.07-35.05-60.23-33-1.76,3.06,65.15,32.18,62.77,36.31-1.77,3.07-55.14-35.64-57.18-32.11-2.42,4.2,61.63,29.76,59.08,34.18-1.46,2.53-57.85-33.54-59.55-30.59-2.21,3.84,56.42,28.71,54.72,31.66-1.2,2.08-64.6-38.66-66.22-35.84-2.65,4.6,65.92,32.05,63.29,36.62-2,3.42-63.82-39.55-65.31-37-2.31,4,68.42,34.9,66.39,38.41-2.19,3.8-61.36-37.53-63.81-33.29-1.55,2.7,70.36,34.07,67.49,39-1.19,2.06-61.47-35.76-62.84-33.37-2.31,4,63.86,33.37,62.31,36.05-2.25,3.91-59.47-35.16-61.66-31.35-1.71,3,70.16,34.37,67.47,39-1.39,2.41-71.79-43-74-39.27-2.91,5.06,65.14,30.67,62.11,35.93-1.07,1.86-57.68-33.58-59.75-30-3.44,6,74.1,37,71.55,41.4-1.89,3.28-81-48-83.86-43.12-3.37,5.85,80.15,38.48,76.74,44.4-1.47,2.55-83.21-48.25-85.91-43.56-2,3.43,96.81,50.59,94.47,54.65s-92.27-53.64-95-48.83c-3.69,6.41,97.07,51.08,94.87,54.89-3.79,6.58-93.78-58.8-96-55-1.72,3,90.21,47,88,50.89-3.55,6.17-88.57-55-90.56-51.59-1.72,3,96.72,49.25,93.82,54.28-3.76,6.53-93.59-56.82-96.13-52.43-1.74,3,94.84,46.94,91.42,52.89-3,5.14-78.55-52-81.79-46.35-3.47,6,84.58,42.06,81.61,47.21C277.66,167,195,114.2,192.18,119s97.5,51.06,95.19,55.07c-2.11,3.66-100.58-61.71-103.3-57-4.09,7.1,107.77,57.29,105.58,61.09-2.92,5.07-97.77-59-101.66-52.2-2.82,4.89,100.82,51.44,97.84,56.61-2.08,3.6-94.26-62.25-97.94-55.85-2.89,5,102.52,50.5,98.71,57.11-3,5.19-105-61.74-107.24-57.8-4.13,7.17,108.33,55.83,105.37,61-2,3.55-97.92-63.27-101.72-56.68s95.71,50.13,93.45,54.06c-3.69,6.41-104.27-58.15-106.26-54.69-3.67,6.37,120.16,59.66,115.9,67.05-3.42,5.93-106.74-65.05-109.3-60.61-4.58,7.94,115.09,58.61,111.65,64.59-2.74,4.76-115.14-70.41-119.45-62.93-4.14,7.18,113.17,55.44,108.83,63-3,5.28-100.91-65.45-104.38-59.43-4.32,7.5,117.76,60.88,114.63,66.32-3.76,6.53-114.84-72.52-119.29-64.8C166.14,147.51,292,203,287.13,211.36c-2.47,4.29-113.24-71.92-117.32-64.84C164.93,155,282.28,205.07,279.47,210c-3.73,6.47-105.15-65.34-108.76-59.07-4.47,7.75,115.73,57,111.43,64.47-2.85,4.94-118.45-72.21-121.49-66.93-3.24,5.63,121.87,61.17,117.84,68.18-3,5.22-115.12-69.94-117.9-65.11-4.21,7.3,131.41,69.52,128.6,74.4-4.92,8.54-129-79.28-132.42-73.3s129.3,67.42,126.11,73c-4,6.91-128-82.84-132.31-75.4-3.34,5.8,139.3,71.11,135.2,78.22-2.94,5.1-125.68-78.78-129.8-71.63-4.62,8,137.2,70.09,133.19,77.06-2.9,5-138.71-85.77-142.89-78.5-5.47,9.49,146,74.29,141.57,81.91-5.13,8.9-131.39-81.17-136.44-72.4-4.46,7.74,139,74.22,136.33,78.88-3.34,5.79-128.52-84.73-133.36-76.34-4,6.92,126,66.15,123.08,71.21-4.88,8.46-130.5-81-134.88-73.38-5,8.68,142,71.55,137.44,79.52-5.46,9.48-140.69-86.87-143.87-81.35-4.54,7.87,149.74,73.88,144.23,83.45-3,5.23-145.35-89.91-150.57-80.84-3.26,5.65,155.81,75.33,149.41,86.44-3.05,5.3-155-101-160.35-91.68-4,7,167.49,86.13,162.83,94.21-4,7-162-101.41-168.16-90.63-4.2,7.3,174.14,93.5,171,98.94C280,271,113.37,154.55,108.35,163.26c-5.43,9.42,182.81,89.22,175.67,101.63-3.22,5.59-170.84-106.48-175.87-97.75-5.94,10.31,185.1,98.94,181.57,105.05-3.62,6.28-182.17-117.17-188-107C94.62,177.49,294.1,262.59,288.08,273,283.9,280.3,101.3,158,97.21,165.07c-5.91,10.26,184,95.54,179.27,103.72C269.92,280.16,95.84,157.85,92,164.52c-8.09,14,202.9,101.42,196,113.4-7.17,12.45-196-123.29-203.14-111-4.57,7.93,203.28,102.82,196.89,113.91C276.29,290.33,83.24,154.42,76.9,165.42c-7.1,12.32,209.56,107,203.41,117.68-5.93,10.3-208.55-129.66-214-120.27-7.27,12.63,217,113.68,211.89,122.59S66.72,153.13,61.4,162.36c-5.05,8.77,234,114.46,225,130.16C281.71,300.6,58,147.65,49.81,161.78c-5.49,9.53,243.11,128.37,237.81,137.58C278.87,314.56,53.21,149.52,45.42,163c-6.35,11,245,123.54,237.13,137.19C274.31,314.53,54.89,157.38,48,169.29c-8.18,14.2,241.58,128.13,236.55,136.86C274.95,322.85,42.8,156.93,37.94,165.35c-5.4,9.38,253.8,125.63,244.64,141.54-9.35,16.23-246.79-159.73-256-143.66-9,15.57,257.59,128.37,248.66,143.86-4.65,8.07-250.83-153-255.61-144.68C10,179.11,295.45,302.45,287,317.12c-8.63,15-250.53-163.89-260.38-146.79C19.5,182.69,288.47,310.15,283.43,318.91,278.61,327.27,32,161,25.29,172.59c-6.12,10.63,272.15,136.7,263.18,152.26-5.15,8.93-261.77-173.1-271.67-155.92C9.74,181.17,297.56,311.56,289,326.41,282.23,338.16,19.5,152.51,9.07,170.61c-7,12.12,274.24,140.79,266.52,154.2C265.46,342.39,25.78,160.35,16.83,175.89c-5,8.64,283.14,139.17,272.49,157.65-7.72,13.41-268.77-175.93-278.59-158.9C1,191.52,294.28,319.53,286,333.9,279.31,345.51,19.93,162.27,11.84,176.31,2.78,192,297.6,321.46,288.89,336.6,284.07,345,26.3,168.72,18.92,181.52,10,197,282.79,321.46,277.29,331,269,345.32,29.52,170.26,21.2,184.69c-7.57,13.15,266.4,141.68,261,151C271.34,354.59,11.38,172.15,6.33,180.92c-7.41,12.86,286.82,144.17,277.41,160.5-9.89,17.16-259.51-174.5-270.19-156C7.65,195.7,294.1,321.58,282.78,341.22c-8,14-252.76-165.67-261.47-150.57C10,210.38,292.86,330.52,285.41,343.45,275.2,361.17,12.54,175.08,6.91,184.85c-10.66,18.51,278.81,145.3,271.89,157.31C269.58,358.17,11,179.43,6.12,188c-5.16,9,283.93,142.42,274.49,158.81-9.17,15.92-260.19-168.16-269-152.9-9.69,16.81,278.83,147,272.63,157.73C279.31,360.19,16.72,182,8.7,195.87-1,212.64,292.69,347.56,287.24,357c-9.91,17.2-262.56-167.33-269.87-154.64-9.48,16.45,276.16,148.3,271.2,156.9C280,374.1,20.65,189.93,14.11,201.28,5.06,217,293,342.69,284.42,357.67c-8.19,14.22-259.71-164.4-266.59-152.45C9.68,219.37,295.53,346.31,287.07,361,277.42,377.75,15.37,187.26,7,201.74-2.39,218.09,287.59,340,277.19,358,272,367,18.09,189.64,7.67,207.74c-10.14,17.6,286,153.9,281,162.57C278.32,388.24,24.82,200.07,16.28,214.9,6.18,232.43,281.2,355.6,275.76,365,268.46,377.7,13.18,203.3,8.28,211.81-3,231.42,292.42,359.73,285.3,372.08,275.52,389.07,19.73,195.57,9.7,213,2.54,225.41,297,358.25,287.94,374,278,391.26,21.33,199.85,11.45,217,.08,236.74,290.06,357,280.9,372.91,273.15,386.36,26.37,212.39,18.32,226.36,12.07,237.21,285.44,368.49,280.08,377.8,269.55,396.07,24.25,218.86,19.49,227.12c-7.5,13,268.6,141.81,262.73,152-4.75,8.24-252.34-163.12-262-146.39-9.41,16.33,266.64,137.63,259.45,150.11-6.61,11.48-259.5-160.48-264.61-151.62-6.28,10.9,279,140.31,269.91,156.16-9.27,16.09-269.47-168.59-276.14-157C-2.53,250.1,291.9,373.44,283,389c-8.61,14.94-259-157.22-264.6-147.52C11.12,254,293.52,381.88,285.41,396c-10,17.35-265.11-160.7-271-150.48S285.48,389.06,279.76,399c-5.4,9.37-260-159.39-266.48-148.19-5.44,9.45,282,138,271.14,156.87-7.17,12.45-264-168.53-270.86-156.58C2.88,269.64,281.77,393,276,402.94c-6.58,11.41-252.15-157.18-258.82-145.6-5,8.66,270.67,133.94,260.87,150.93-6.62,11.5-256.4-162.72-262.87-151.49C3.9,276.44,292.49,402.25,286,413.46,276.93,429.27,22,246.66,13.52,261.33,6.28,273.9,285,395.26,275,412.6,266.26,427.73,17,247.77,9.67,260.48,1.88,274,288.75,395.61,277.37,415.36c-8.71,15.11-256.78-168.7-267-151C-.86,283.89,297,410.17,288.39,425.19c-10.1,17.53-264.33-173.7-274-156.87-5.42,9.4,270.3,144.91,265.34,153.51C273.51,432.58,19.12,257.29,12.79,268.27,5,281.75,285.72,405,276.56,420.88,270.74,431,13.91,253.18,5.9,267.09.42,276.6,292.37,420.29,287,429.7c-7.79,13.53-261-169.39-270.2-153.39-5.23,9.08,118.81,59.41,114.78,66.41-2.16,3.74-116.6-73-120.2-66.77-5,8.71,118,59.32,114.12,66-2.31,4-113.66-64.9-115.72-61.32C6,287,125.81,338.89,122,345.57c-3.64,6.33-106.87-69-110.94-61.92-2.78,4.83,109,55.29,105.66,61.13C113.41,350.47,11.19,274.22,7,281.57c-3.5,6.08,108.34,54.72,104.9,60.69-3.8,6.59-96.21-61.11-98.85-56.54-4,6.9,100.18,47.71,95.75,55.4-2.25,3.9-92.14-55.76-95.28-50.31-2.23,3.87,98.9,50.93,96.18,55.65-1.92,3.33-96.51-59.55-100-53.5-3.34,5.8,91.79,47.88,89.53,51.8-2.78,4.82-80.7-51.08-83.75-45.78-1.77,3.07,72.85,37.6,70.88,41-1.58,2.74-69.32-38.63-70.86-36-3.22,5.58,72.11,36.35,69.79,40.38-1.91,3.31-64.33-40-66.52-36.22-1.59,2.77,64,29.91,60.93,35.25C77,348,11.42,307.52,10.21,309.63,8.26,313,77,343.6,75,347.1c-1.16,2-60.18-36.51-61.25-34.64-2,3.4,51.24,26.87,50,29-1.69,2.93-49.09-28.54-50.28-26.47-1.47,2.55,50.79,25.45,49.09,28.4-1.41,2.45-43.36-25.6-45.07-22.64-1.54,2.68,42.26,19.51,40.12,23.21-1.21,2.1-37-22.89-38.39-20.47-1.22,2.11,30.86,15.6,29.88,17.29-.81,1.4-32.6-15.76-33.22-14.68-1.21,2.11,35.42,17.77,34.25,19.81-1,1.67-36.58-16.33-37.46-14.79-1,1.73,17,7.07,15.81,9.15-.38.65-11.31-4-11.68-3.33-1,1.76,12,5.65,11.41,6.6s-19.33-7.09-20-5.89,13.73,6.5,13.1,7.58c-.24.41-9.72-3.74-10-3.33-.36.63,8.11,4.08,7.84,4.54s-8.49-4.36-8.67-4c-.1.17,7.52,4,7.38,4.27" fill="none" stroke="#999" stroke-linecap="round" stroke-linejoin="round" stroke-width="1.2"/><path d="M387.64,286.59c-2.21,3.83,42.45,21.5,41.13,23.79-1.12,1.95-43-26.08-44.75-23.1s52.19,26.87,50.76,29.37c-1.7,2.95-45.07-23.33-46.09-21.56-2.19,3.81,43.25,21,41.49,24-.82,1.43-45.71-24.7-46.56-23.22-1,1.76,60.6,31,58.85,34-1.9,3.3-55.08-33.47-57.16-29.87C383,304,439.35,328.2,438,330.54c-1.6,2.77-43.65-25.16-44.72-23.29-1.25,2.17,40.9,19.54,39.12,22.63-1.48,2.58-40-25.55-41.57-22.83-1.68,2.91,52.87,28.23,51.85,30s-50.09-29.71-51.79-26.77c-1.38,2.4,49.57,24,47.55,27.51-1.74,3-47.9-25.84-49.8-22.55-1.65,2.86,49.73,23.55,47.47,27.46-1.52,2.64-51.53-27.21-52.52-25.5-1.75,3,51.59,27,50.37,29.14-1.11,1.93-35.28-16.65-36-15.34-1.61,2.79,25.92,13,25.05,14.49-1.38,2.39-37.62-24.84-39-22.51s32.28,15,30.69,17.76C413.92,342.12,389,328.27,388,330c-.81,1.41,33.13,17.39,32.36,18.72-1.22,2.12-34.39-21.46-35.78-19s26.22,12.39,25,14.47c-.34.6-18.11-11.12-18.6-10.28-.62,1.08,25,11.8,23.82,13.78-1,1.71-26.68-9.92-27.14-9.13s15.31,7.87,14.88,8.61-13.24-7-13.61-6.33c-.46.79,15.55,7.43,14.87,8.6-.34.59-20.13-7.89-20.58-7.11-.28.49,13.12,7.1,12.91,7.47s-11-3.29-11.22-3c-.07.13,4.52,2.49,4.47,2.58" fill="none" stroke="#999" stroke-linecap="round" stroke-linejoin="round" stroke-width="1.2"/><path d="M502.09,225.6c0,.06,4.52,2.5,4.47,2.58-.23.4-7.26-3.18-7.4-3s8.88,4.65,8.67,5c-.54.93-16-5.62-16.45-4.89-.26.46,15.17,8,14.84,8.58-.58,1-16.7-8.37-17.15-7.57-.6,1,17.36,8.34,16.63,9.62s-22.74-9.8-23.59-8.33c-1,1.79,15.07,7,14.31,8.28-.6,1-18.65-5.86-19.08-5.1-.8,1.4,18.56,8.4,17.55,10.15-.4.69-19.57-12.07-20-11.41-.88,1.53,22.19,10.49,21.17,12.25-.63,1.09-24.2-13.46-24.66-12.67C470,231.7,505,245.57,503.69,247.82S463.54,227.74,462.83,229c-1.52,2.63,45.65,23.61,44.44,25.71-1.73,3-50.59-30.87-51.95-28.53-1.68,2.92,43.68,22.16,42.33,24.49-1.1,1.91-46.27-25.16-48.1-22-1.61,2.8,54.43,26.23,52.16,30.18-1,1.7-51.29-32.87-52.82-30.22-1.38,2.4,47.48,24,46,26.59-2,3.47-49-29.94-50-28.23-1.36,2.36,57.31,28.76,55.41,32.06" fill="none" stroke="#999" stroke-linecap="round" stroke-linejoin="round" stroke-width="1.2"/><path d="M437.76,161.07c0,.07,4.61,2.53,4.56,2.64s-4.28,4-4.39,4.21c-.31.53,1.08-.17.74.43s-9.66-2.13-10-1.62c-.5.87,10,3.71,9.13,5.28-.53.91-17.19-10.46-17.84-9.33s20.69,10.48,20,11.6c-.55,1-17.88-10.55-18.21-10-.9,1.56,20.49,10,19.68,11.39-.66,1.14-20.29-10.55-20.81-9.63-.62,1.07,8.46,3.35,7.79,4.51-.48.84-19.53-6.33-19.94-5.61-1.61,2.8,29.1,13.55,27.68,16-1.18,2-40.05-18.72-41.11-16.88-1.27,2.21,46.48,23.46,45,26-1.21,2.11-46.5-25.66-47.4-24.12-1.84,3.2,42.6,20.38,40.76,23.58-1.7,2.94-45.91-25-47.42-22.37-1.87,3.25,59.35,30.43,57.66,33.36s-46.21-24.19-47.77-21.47c-2.27,3.93,44,21.29,42.17,24.4-1.09,1.89-43-26.59-44-24.82-2.05,3.56,40.56,18.65,38.48,22.26-1.18,2.06-47.07-23.68-48.15-21.81-1.18,2,47.58,22.35,45.34,26.23-.69,1.2-30.21-14.13-31.37-12.1-1.78,3.09,33.83,16.69,32.58,18.85-.84,1.46-33.22-20.74-34.13-19.16-1.11,1.92,39.15,18.76,37.47,21.68-1.79,3.11-47.82-30.3-49.08-28.12-1,1.77,52.85,27.76,51.64,29.87-1.82,3.15-46.56-26.79-47.56-25.06-1.29,2.25,50.25,24.43,48.24,27.91-1.27,2.21-40.58-25.36-41.46-23.83-1.42,2.46,45.21,21.35,43.14,25-1.36,2.36-52.43-26.57-53.75-24.28-3.76,6.53,117.34,58.31,113.21,65.5s-104.17-64.67-106.11-61.29c-4.88,8.47,104.75,51.31,100.73,58.28C489.64,265,390.08,198.08,388,201.67c-3.83,6.65,108.51,57,106,61.33-3.59,6.23-104.41-67.25-108-61-4.9,8.51,124.16,64.18,120.85,69.92C504.17,276.61,394,205.69,391,211c-3.43,6,115,60.23,112.26,64.95-2.28,4-108-65.39-112.05-58.32S500,274.43,497.31,279C495,283,389,213.2,386.83,216.92c-3,5.17,115.2,57.33,111.17,64.32-3.26,5.66-101.25-66.28-105-59.77-4,7,109.9,53.81,105.67,61.14-2.57,4.47-100.81-61.41-103.81-56.2-3.35,5.81,94.92,48.95,92.34,53.42-1.86,3.24-99.82-61.12-102.34-56.74-3.79,6.57,98.91,48.53,95.16,55.05-2.93,5.08-94.47-59-96.68-55.12-3.24,5.62,99.19,50.84,96.36,55.75-3.25,5.65-90.45-57.11-94.08-50.81-2,3.54,95.28,46.42,91.52,52.95-1.71,3-88.23-52.65-90.21-49.21-3,5.13,86.52,45.48,84.54,48.91-3.27,5.68-85.54-52.54-88.72-47-2.12,3.69,90.43,44.6,87.09,50.39-1.84,3.19-94.64-57.89-97.52-52.9-3.52,6.11,83.27,39.69,79.6,46.05-1.49,2.59-79.49-48.08-82.37-43.08-4,7,89.27,44.73,86.28,49.92-2.37,4.11-101.1-61.29-104.64-55.14-3.8,6.6,92.05,44.35,88.21,51C437.6,283,338.43,220,335.13,225.7c-2.26,3.92,110.62,57.8,107.95,62.45-3,5.12-112-66.47-115.4-60.62-4.47,7.76,117.89,62.07,115.24,66.67-4.61,8-114-71.59-116.66-67-2.08,3.61,111.38,58.11,108.64,62.86-4.39,7.62-109.24-68.07-111.69-63.81-2.09,3.63,118.48,60.4,115,66.51-4.63,8-114.72-70.38-117.83-65-2.11,3.67,117.29,58.2,113.12,65.44-3.75,6.51-99.31-66-103.41-58.86-4.21,7.31,106.84,53.45,103.23,59.72-2.29,4-102.72-61.49-106.12-55.58s116.68,61.2,114,65.93c-2.46,4.27-117.21-72.39-120.38-66.88-4.75,8.25,125.21,66.57,122.67,71-3.31,5.74-110.34-67.44-114.75-59.78-3.15,5.47,114.27,58.39,110.93,64.18C437.22,317,333.19,242.61,329,249.84c-3.23,5.6,115.56,57,111.31,64.4-3.28,5.69-114.8-67.92-117.28-63.61-2.26,3.93,56,28.63,54.35,31.44-1,1.71-47.56-29.57-49.38-26.4-2,3.41,38.52,19.62,37.36,21.62-1.55,2.69-45.24-21.32-46.08-19.87-1.44,2.49,45.64,22.55,44,25.44-1.1,1.9-35-19.5-35.79-18.07-1.59,2.76,34.79,17.35,33.59,19.43-.83,1.44-36.36-17.87-37.66-15.61-1,1.8,17.45,7.58,16.36,9.47-.32.56-11-6.23-11.33-5.6-1,1.77,20.67,10.25,19.93,11.53s-21.27-9.89-22-8.54c-.46.8,14.65,6.53,13.81,8-.27.47-13.46-5.79-13.91-5-.64,1.11,4.19,1.57,3.83,2.21s-11.26-3.47-11.6-2.86,13.06,6.78,12.72,7.36c-.23.4-10.69-3.48-10.94-3,0,.08,4.65,2.55,4.59,2.65" fill="none" stroke="#999" stroke-linecap="round" stroke-linejoin="round" stroke-width="1.2"/><path d="M264.56,30.69c16.9-15.54,25.16-.3,23.86,22.35,4.09-4.6,4.37,408.15.13,411.56.55,9.45-6.86,25.15-18.69,17,1.13,6.12-128.25-141.81-131.7-127.78,3-12.54-120.66-13.55-115.9-5-10.21,5.91-14.92-.93-12-16.45-6.82,4.95-7.49-157.14-3-164.74-.59,3.74,3.35.15,15.33-6.08-2.2-.67,118.29-6,118.67,8.91C140.61,167.93,268,23.78,264.56,30.69Z" fill="none" stroke="#666" stroke-width="3"/><path d="M388,163.41c1.17-4.59,51.4-4.45,50.14,1.08.76-2,5.86.63,2.32.1,1.16.86,3.56,62.85,1.76,64.74-1.08-3.05,59.45-5.51,59.18-2,5.26-2.2,6.36,2.44,3,1,4.73,3.59,4.87,53,2.23,51.84,1.69,4.44-1.14,1.28-6.26,3.79,4.32-.27-56.37-1.14-56.34-3.11-.63,3.39-1,63.29-2.62,63.74,1.3,1.89.8,8.82-4.63.87,2.55,7.95-46.36,3.11-47.81,4.82-1.81-1.56-4.35-5-2.42-6.15-2.46.33-1.11-62-3.42-57.29,1.36.76-57.45-3.2-56.78,1.09-5-1.26-7.24-9-6.11-12-1.92,1.91-.08-46.68,2-46-3.06-3.87,0-3.16,4.26-6.54-4.24,3.33,56.88,1.43,59.78,5-2.22-1.89-2.38-63.06-1.32-60.59C385.28,160.67,385.66,164.15,388,163.41Z" fill="none" stroke="#666" stroke-width="3"/><path d="M275.2,23c8.89,7,13.5,9.69,16.93,17-1.64,6.11-3.49,426.74.73,431.54-1-.55-14.93,12.59-28.07,17.58.79-6.7-122.63-141.53-125.58-144.12,5.44,3.7-117.7-.24-114.74,3-5.53-1.12-16.91-9.8-20.13-9.72C7.85,336.66,8.71,175.52,2,175.33c7.23-9.35,10.32-13.57,22.31-14.09,1.92-.74,115-1.72,119.69,1.65C146.37,159.1,273,29,275.2,23Z" fill="none" stroke="#4c4c4c" stroke-width="2.25"/><path d="M392.32,159.84c.67,1.8,42,2.22,45.43,2.18,5.27,1.54,4.66,2.66,5.84,5,.49,1.08-.81,57.78-3.46,59.89,1.5-.32,60.31-2.11,62.94-1.22,1.41-.19,6.37,3.25,7.53,5.64-4.37,1.13-2.13,47.79.94,48-6.09,2.07-3.87,6.26-5.85,6.62-5.51-.8-64.39-1.57-64.78-.52,2-.81,2.19,57.69-.34,60.25,3.11.73-3.08,2.59-3.49,4.7-.8-2.07-46.67-3.26-44.37,1.19-6-3.56-6.07-7.19-6-5.09-4.13-2.76-4.87-63.87-5-60,3.07-2.28-52.54-2-54.52.06-2.13-1.23-8.46-6-10.42-6.24,1.85-3.17,6.67-49.33,5.56-51,1.53-2.45,3-1.58-1.52-4.14,5.12,1.7,65.84.76,66.6.11-4.94,2.46-2.73-56.6-2.34-59C384.3,163.14,390,161.05,392.32,159.84Z" fill="none" stroke="#4c4c4c" stroke-width="2.25"/></svg>