<svg id="Layer_1" data-name="Layer 1" xmlns="http://www.w3.org/2000/svg" viewBox="0 0 512 512"><title>decrease-volume-handdrawn</title><path d="M504.16,225.41c0,.06,4.45,2.43,4.39,2.54-.16.27-8.16-1.58-8.43-1.11-.4.69,10.15,5.39,9.94,5.75-.47.82-13.95-8.43-14.46-7.55-.23.39,14.88,7.89,14.57,8.43-.41.72-20.75-8.19-21.43-7-.42.73,11.85,5.55,11.29,6.53s-15.18-5-15.58-4.32c-.76,1.32,26.08,13.47,25.38,14.68-.88,1.52-26.74-17.28-27.59-15.81-1,1.65,16.77,7.16,15.67,9.07-.27.48-12.79-5.45-13.25-4.65-1,1.67,17.58,8.16,16.71,9.67-.64,1.11-25.58-12-26.25-10.85-1.69,2.93,23.42,9.92,21.86,12.64-1,1.67-33.82-19-34.82-17.26-1.34,2.32,36.9,18.66,35.74,20.67-1.42,2.46-37-17.92-37.8-16.6-1.72,3,46.93,24.6,45.83,26.51-1.7,3-54.9-31.74-56.55-28.89-1.24,2.16,52.72,24.81,50.26,29.07-1.95,3.38-56.43-33.84-57.8-31.47-1.19,2.06,64,31.78,61.75,35.71-1.58,2.74-55.45-30.7-56.62-28.67-2.24,3.89,51.16,26.23,49.71,28.75-1.09,1.89-54.88-32.21-56.35-29.66-2.76,4.78,60.11,29.07,57.65,33.34-1.14,2-64.81-38-67-34.18-3.38,5.86,75.06,35.66,71.71,41.48-1.43,2.47-79.78-49.47-81.73-46.08-1.63,2.83,91.26,47.38,88.92,51.43-1.62,2.81-90.65-52.26-93.27-47.71-3.68,6.38,85.61,41.3,82.06,47.46-1.77,3.07-83.86-52.63-86.11-48.72-2,3.44,86.92,41.52,83.13,48.08-2.22,3.85-90.67-53.78-92.31-50.94C400,231.66,503.76,275.2,500,281.65c-3.41,5.91-88.77-57.26-92.34-51.07-2.37,4.1,94.05,48.3,91.42,52.87s-90.25-55.15-92.53-51.2c-2.81,4.88,91.5,45,88.06,50.93-2.18,3.78-95-55.93-97.95-50.82-1.94,3.36,80.12,37.18,76.16,44-2.6,4.51-76.62-47.92-79.23-43.4-3.85,6.67,78.8,38.72,75.84,43.86-1.66,2.88-87.16-52.37-90.56-46.48-1.9,3.3,85.92,42.33,82.74,47.86-2.42,4.2-94.23-57.2-96.75-52.82-2.4,4.17,97.18,48.43,93.82,54.26S357.62,222,355.63,225.46c-2.33,4,100.29,52.34,97.84,56.59-1.82,3.17-85.57-53.94-88.28-49.23-2.37,4.11,88,42.85,84.51,48.88-2.44,4.24-93.36-58.87-96.41-53.58-1.8,3.13,94.11,50.09,92.23,53.35-3.86,6.7-101.35-63-105.33-56.07-2.61,4.52,102.17,52.19,99.19,57.37-2.24,3.88-91.72-52.07-93.31-49.31-1.91,3.32,84.35,42.12,81.46,47.12-2.28,4-93.85-59.32-97-53.84-2.46,4.27,92.36,46.33,89.3,51.65C416.52,284.12,330.9,223,329,226.25c-1.7,2.95,96.05,47,92.35,53.41-2.55,4.43-92.11-57.58-94.71-53.07-3.13,5.42,93.56,46.33,90.2,52.17-1.76,3.06-83.2-48.25-86-43.43-3.33,5.78,71.7,36.09,69.37,40.12-2.43,4.22-71.84-40.27-74-36.61-2.41,4.17,70.07,35,67.66,39.14-1.47,2.56-66.65-38.13-68.45-35-2.2,3.82,62.91,33,61.43,35.53S327,245.95,325.19,249.15c-1.11,1.93,46.2,23.78,44.93,26-.64,1.11-37.1-17.55-37.85-16.25-1.72,3,40.18,18.8,38.26,22.13-.82,1.43-39.25-19.19-40.25-17.44s34.26,16.44,32.8,19c-.59,1-33.84-18.71-34.5-17.57-1.29,2.23,25.26,12,24.11,13.95-.33.57-13.73-6.12-14.16-5.37-1,1.82,7.41,2.91,6.82,3.94-.31.53-17.74-7.75-18.08-7.17-.52.9,22.61,11.78,22,12.75-.41.7-20.94-10.25-21.47-9.33s9.38,4.67,9.05,5.24c-.15.26-4.46-.41-4.54-.28-.27.48,1.1,0,.82.48s-7.93-1.59-8.16-1.2c-.14.24,9.85,5.28,9.67,5.59s-8-3.53-8.29-3.08c0,.07,4.78,2.64,4.72,2.73-.18.31-4.52-2.81-4.62-2.63s4.56,2.46,4.48,2.59" fill="none" stroke="#999" stroke-linecap="round" stroke-linejoin="round" stroke-width="1.17"/><path d="M145.32,351.39c-3.14,5.45,132.27,64.17,126.94,73.42-3.71,6.43-122-79.86-127.06-71.15-2.95,5.11,125.1,62.74,120.94,69.95-3.83,6.64-121.58-75.16-123.82-71.27-3.12,5.42,139.08,74.4,136.47,78.93-5,8.59-127-75.59-129.66-70.94C144.6,368.19,273,421,268.23,429.21c-3.56,6.18-98.2-57-101.2-51.77-2.82,4.89,109.59,55.78,106.31,61.49-3.08,5.34-100.56-62.25-103.81-56.62-3.53,6.12,99.53,49.09,95.87,55.45-2.46,4.27-82.48-49.41-84.06-46.67-2.34,4.06,97.5,48,93.87,54.3-2.75,4.77-87.91-55.5-91.12-49.93-2.92,5.06,86.54,42.09,83.1,48.06-2,3.48-83.65-53.08-86.31-48.48-3,5.21,95.69,47.82,92.44,53.46-1.62,2.81-79-48.93-81.23-45-2.87,5,80.4,41.52,78.24,45.26-1.49,2.59-67-38.41-68.64-35.57-2.84,4.93,71,34.4,68.11,39.39-1.19,2.07-68.16-40.09-69.42-37.9-2.56,4.45,76.56,40,74.69,43.2-2.47,4.28-64.73-39.87-66.39-37-2.33,4,68.69,34.5,66.43,38.42-2,3.55-55.47-30.42-56.94-27.86-2.08,3.61,49.14,22.77,46.69,27-.68,1.19-34-17.68-35.16-15.71-1.58,2.74,46.61,22.21,44.56,25.77-1.76,3-45.61-24.4-46.85-22.25s47.38,23.37,45.64,26.39c-.64,1.11-30.1-16.66-31.21-14.74-.92,1.59,26.9,13.53,26,15-.41.71-16.72-5-17.1-4.34s6,1.79,5.25,3c-.12.21-3.38,1.91-3.46,2s10.79,5.91,10.65,6.16-6.33-2.07-6.53-1.72c0,.06,3.72,2.06,3.68,2.13" fill="none" stroke="#999" stroke-linecap="round" stroke-linejoin="round" stroke-width="1.17"/><path d="M265.09,30.09c-.1.17,6.65,3.47,6.49,3.75-.37.64-10-5.33-10.19-5-.29.51,13.51,6.84,13.09,7.57-.51.88-19.59-5.69-20-5-.57,1,20.74,10.21,20,11.55-.5.88-15.81-7.48-16.27-6.69-.63,1.09,9.33,4.14,8.79,5.08-.16.27-5-1.15-5.17-.9-.56,1,6.47,1.86,5.66,3.27-.41.71-16-3.65-16.49-2.83-.93,1.61,28.57,14.56,27.72,16-.72,1.25-19.62-11.52-20.07-10.73-1.18,2,6.43,2.35,5.84,3.38-.34.59-9.95-5-10.15-4.65-.54.93,14.64,6.28,13.69,7.92-.36.62-21.33-7.07-22-6-1.13,2,33.94,18.17,33.31,19.26s-28.24-13.09-29.19-11.44c-1.15,2,16.19,7.07,15.2,8.79S239.46,51.94,239,52.75c-.93,1.61,32.68,16.31,31.56,18.26C270,72,246,57.33,245.14,58.85s33.46,16,32,18.51c-.79,1.38-35.49-17.37-36.48-15.65C239.37,64,271,75.32,269.29,78.28c-.91,1.57-27.93-17.46-28.7-16.12-1.19,2.07,40.75,19.29,38.9,22.5-1.15,2-49.28-27.7-51-24.8-1.91,3.31,39.38,19.09,37.79,21.85-.89,1.55-23.77-13.69-24.51-12.41-1.94,3.36,36.44,17.91,35.07,20.28-1,1.77-40.43-25.09-41.34-23.52-1.78,3.09,30.85,13.82,29.12,16.84-1.07,1.85-32.59-17.33-33.35-16-2.1,3.64,37.56,18,36,20.8-.86,1.5-37.66-18.2-38.55-16.66-1.49,2.59,38.92,19.9,37.79,21.86-1.52,2.64-38.25-22.44-39.4-20.44C225,76.15,269.17,93.78,267.87,96c-1,1.76-46.57-24.82-48.12-22.14-2.08,3.61,58.52,30.12,56.91,32.92-1.73,3-52.86-33.68-54.41-31-1.34,2.32,57.72,28.23,55.49,32.09-1.35,2.33-48.85-28.52-50.55-25.56-2.49,4.32,39.87,19.79,38.46,22.24-1.7,2.94-44.37-26.84-46.16-23.72-1.89,3.28,60.51,32.34,59.36,34.33-1.47,2.55-65.38-38.32-66.83-35.81-2.63,4.57,65.56,32.69,63.3,36.61-2,3.47-54.31-32-55.73-29.54-2.38,4.13,56.11,26.15,53.39,30.88-1.7,3-52.15-29.28-54-26-1.76,3.05,57.92,28.41,55.72,32.23-1.43,2.47-67.92-38.93-69.4-36.37-2.62,4.54,66.64,32.7,64.11,37.08-1.69,2.93-60.66-37.6-62.72-34-2.81,4.88,72.11,35.22,69.3,40.08-2.41,4.19-73-43.35-74.4-40.87-2.07,3.59,76.81,40,74.88,43.31-1.34,2.32-64.33-39.9-66.31-36.47-1.52,2.64,71.5,35.66,69,39.93-1.27,2.21-66.53-39.64-69.13-35.13-1.43,2.47,63.38,31.61,61.2,35.4-2.67,4.63-71.56-42.49-73.5-39.13-2.41,4.19,78.6,38,75.37,43.59-2,3.53-66.16-36.39-67.81-33.51-1.79,3.1,63.5,32.2,61.54,35.59s-63.06-37.87-65.19-34.17c-3,5.12,70.18,33.85,67.27,38.91-1.28,2.21-64.59-42-67.08-37.65-2.86,5,71.28,33.91,68.12,39.4-2.23,3.88-72-41.27-74.53-36.89-1.84,3.19,72.72,37.32,70.67,40.88-1.55,2.69-79.17-46.82-81.32-43.1-2.27,3.94,81.94,42.93,80,46.28-1.8,3.13-71.26-40.52-72.63-38.15-2.87,5,78.31,38.46,75.35,43.58-2.1,3.65-78.75-51.95-81.66-46.9-1.89,3.27,94.81,49.14,92.35,53.41-3.43,6-84.77-52-86.35-49.24-3.81,6.6,89.79,46,87.22,50.45-2.12,3.68-84.24-52.42-87-47.62-4,6.91,89.75,42.9,85.86,49.66-1.73,3-91.75-53.28-94.37-48.73-4,7,89.24,43,85.53,49.47-1.67,2.9-86.76-56.09-89.44-51.45-3.69,6.41,93.32,47.46,90.5,52.35-3.17,5.51-94.4-56-97.67-50.29C168.8,129.61,272.89,176,270.6,180c-3.29,5.7-87.49-51.37-89.83-47.31-3.59,6.22,100.83,51.08,97.7,56.51-4.09,7.1-107.53-65.21-109.8-61.27-4.35,7.54,103.51,53.17,100.61,58.19-2.48,4.3-93.61-60.14-96.34-55.41-2.08,3.62,105.71,55.89,103.44,59.83-4,7-102-67.26-105.73-60.86-2.65,4.6,108.35,56,105.49,61C273,196.18,171.38,127,167.25,134.16S277.75,189,273.84,195.81c-4.16,7.22-104.77-61.72-107.15-57.58-4,7,102.55,53.84,100.19,57.95-2.26,3.92-98.44-61.15-101.4-56-3.54,6.15,115.58,59.56,112.43,65-3,5.22-105.08-62.79-107.65-58.32C167.49,151.64,272,196.4,268,203.37c-3,5.17-96.35-64.7-100.33-57.81S281.86,206,279.44,210.23C275,217.88,158.27,133.3,154.7,139.49c-3.31,5.75,120.74,60,116.49,67.38-3.48,6-104.11-63.67-107.35-58-2.51,4.36,114,59.1,111,64.22S158,137.78,154.27,144.21c-5.07,8.8,124,60.95,119.36,69-2.22,3.84-120.17-72.82-123.61-66.84-4.27,7.41,123.51,62.37,119.59,69.17-3.29,5.72-108.53-66.82-111.73-61.27C152.61,163.42,272.18,210.64,268,218c-3.23,5.6-106.35-65.3-108.95-60.8s121,59.13,116.28,67.26c-3.84,6.66-116.14-68.89-119.26-63.49-4.63,8,117.59,55.47,112.17,64.88-3.34,5.79-119.81-71.48-123.53-65-5.25,9.1,124,64.39,120.84,69.89-4.26,7.39-119.39-74.89-123.37-68-4.33,7.52,131,68.12,127.71,73.87C266,243.35,153.8,160.78,149,169c-3.52,6.1,129.09,67.5,126,72.87-5.09,8.83-130.72-81.56-134.91-74.3-2.83,4.92,139.07,69.45,134.32,77.69-3.62,6.28-142-89-147.51-79.48-4.45,7.71,149.43,73.85,144,83.28-4.9,8.49-147.61-87.22-151-81.41-4.38,7.6,151.64,77.9,147.4,85.26-3.49,6.06-147.82-95.84-153.11-86.67-6.23,10.81,167.45,89,164,94.88C275.06,266.77,117,159,112.66,166.6,106,178.19,284,250.87,277.57,262c-4.61,8-171.18-101.46-175.16-94.56-3.5,6.08,176.87,93.82,173.21,100.18C271.14,275.38,102,155,95.5,166.17c-4.21,7.31,178.95,87.05,171.84,99.39-5.58,9.68-181-112.16-187.13-101.51-5.85,10.15,203.79,104.5,198,114.53-4,6.87-199-126.57-205.66-115.05s200.22,103.25,194.8,112.67C261.83,285.78,75.08,157.45,70.3,165.75c-4.57,7.93,203.07,98.66,194.95,112.76-3.56,6.17-197.38-122.6-202.7-113.35-3.83,6.65,210.91,102.31,202.4,117.07-6.31,11-192.38-126.83-199.85-113.88C57.49,181.55,284.19,278.21,276.9,290.85S64.23,160.21,59.79,167.92c-5.28,9.17,219.12,111.83,212.68,123C265.35,303.27,69.68,156.56,62.16,169.6,53,185.52,283.66,278.19,275.22,292.83,266.53,307.91,60.43,160.2,54.76,170c-5.28,9.16,226.38,119,221.23,128-9.5,16.48-236-146-241.8-135.9C29.28,170.6,271.88,282.92,264.68,295.4,259.25,304.82,45.46,154.87,37.5,168.69,28.36,184.54,281.1,293.35,274.09,305.53c-5.76,10-232.49-155.22-241.64-139.34C23.51,181.7,283.16,292.87,275.24,306.62c-4.45,7.72-241.19-155-249.42-140.69C18,179.53,283.11,295.85,274.94,310c-5.45,9.45-234.7-153.6-242.45-140.14-7.08,12.29,241.79,125.88,235.75,136.36C261.54,317.86,39,152.74,29.86,168.54,22,182.14,280.73,298.68,274.26,309.9,266.8,322.84,31.41,153.08,23.48,166.84c-8.36,14.51,256.91,128.41,248.18,143.55C267.06,318.39,30.08,158,22.55,171.1c-10.36,18,258.47,129,249.6,144.36-8.62,15-254.78-161-262.27-148-9.78,17,262.74,136.18,255.92,148C259.35,326.69,17.19,153.51,9,167.67c-5.19,9,270,133.48,260.22,150.51S21.39,159.25,12.75,174.24c-9.33,16.19,271.86,141,264.85,153.19C267.47,345,22.91,156.62,12.71,174.33c-10.36,18,266.61,130.95,256.56,148.39C262.39,334.66,11.68,158,4.56,170.31c-9.36,16.25,279.56,144.23,272,157.33-4.72,8.19-255.25-155.71-261-145.7C10.46,190.76,277,308.47,266.34,327c-8.42,14.61-243-159.62-251.75-144.47-5.68,9.86,273.48,138.34,264.9,153.22C270.07,352.09,12.5,163,2.39,180.54c-10,17.3,272.73,135.69,263.2,152.23C255.38,350.48,15,179.74,9.39,189.39,4.54,197.8,275.7,332.21,270.85,340.62c-8.43,14.63-258.12-166.25-267-150.79C-6.64,208,285.59,332.9,277,347.83c-9.45,16.4-258-156.66-263-148.09-6.4,11.11,271.41,134.34,261.62,151.32C269,362.58,23.29,190.84,16.39,202.81c-10,17.4,259.47,129.41,250.54,144.91-5.31,9.21-252.51-161.32-261.35-146C-5.48,220.95,279.43,335,268.58,353.84,261.36,366.36,23.38,201.47,16,214.32c-9,15.69,263.84,136,256.67,148.45C263.37,378.88,19.78,202.19,13.42,213.22,4.58,228.55,278.8,351.85,272.38,363c-8.26,14.34-257-154.87-262.21-145.8-8.67,15,271,136.09,262.09,151.59-6,10.34-252.38-169.34-262.84-151.19-6.89,12,270.33,139.91,263.22,152.24C266.74,380.08,10.28,204,2.5,217.55c-9.9,17.19,286.16,144.12,276.91,160.16-5.23,9.07-272-166.09-277.12-157.2C-7,236.57,274.75,361.19,267.44,373.86,261.35,384.43,15.19,217.49,9.67,227.08c-8,13.92,262,138.07,256.17,148.17-7.6,13.19-244-150.4-250.18-139.76C7.27,250,277.3,366.06,268.33,381.63c-9.26,16.06-250.6-163.34-260-147C-1.81,252.18,288.89,372.93,278.54,390.88,269.48,406.61,22.25,233.75,15.67,245.17c-10.4,18,265.66,136.2,258.12,149.29-7.11,12.34-256-151.75-260.47-144-9.28,16.1,259.53,134,252.57,146.08C256.84,412.28,22.81,240.15,13.69,256,3.49,273.67,274.37,394.91,269.25,403.79,260.39,419.17,12.08,238.58,4.36,252-5.73,269.49,277.2,396.5,271.46,406.47c-5.12,8.88-255.21-165.91-263.68-151.2-8.63,15,277.28,140.67,268.77,155.45C270.42,421.34,11.63,249.47,6.39,258.57c-4.8,8.32,278.53,138.71,268.85,155.5-7.56,13.11-263.09-167-272-151.49-11.1,19.26,283,141,273.2,158-5.55,9.64-258-173.68-268.85-154.87-8.44,14.64,265.09,141.48,260,150.36-8.64,15-257.21-153.5-261.87-145.41-4.81,8.35,119.13,58.88,114.8,66.4-2.91,5-102.68-64.85-106.38-58.43-2.21,3.83,112.51,59.18,110,63.6-3.33,5.77-106.5-66.54-109.35-61.59s100.3,53.16,98.2,56.8C110.67,341.34,5.82,276,3.75,279.58c-2.67,4.64,99.62,50.67,96.62,55.88s-85.64-53-87.28-50.12c-3.71,6.44,102.86,54.53,100.71,58.25C109.68,350.75,11.73,278.07,8,284.52c-2.64,4.58,92.86,47.71,90.26,52.21-2.09,3.63-83.82-51.21-87.06-45.58-1.91,3.32,82.5,40.5,79.38,45.91-1.75,3-73.63-46.14-75.33-43.21-3.87,6.71,77.32,39.76,75.18,43.48-1.76,3.06-79.67-47.05-81.54-43.81-2.13,3.69,86.18,43.23,83.32,48.19C89.17,347,6.47,293.33,4.36,297c-1.8,3.13,72.08,37,70.07,40.53-1.78,3.08-60.19-38.14-61.87-35.23-3.19,5.54,69.86,36.08,68,39.33-2.3,4-68.55-40-70.05-37.43-2.93,5.09,60.29,29.57,58,33.54-1.77,3.07-54.63-32.68-56.28-29.81-2.57,4.45,51.13,23.89,48.67,28.15-1.26,2.19-43.29-23.08-44.54-20.92-2.25,3.91,43.65,19.42,41.14,23.79-1.47,2.55-41.45-21.53-43-18.85-2,3.49,42.16,21.07,40.73,23.56-1.22,2.11-42-24.53-42.85-23s32.62,16,31.39,18.16S12.1,318.28,11.08,320c-1.57,2.73,36.88,19.33,36,20.83-1.55,2.69-43.61-25.56-45.29-22.64C.87,319.85,42.42,338.87,41.18,341c-1,1.75-26.93-16.29-27.94-14.54-1.46,2.54,26.1,13.16,25.26,14.61-.49.86-26.54-10.43-27-9.61-.88,1.52,12.4,5.56,11.71,6.77-.15.26-7-1.52-7.19-1.2-.77,1.34,1.8-.9,1,.56-.2.34-6.83-.71-7.07-.3-.68,1.17,4.88,1.75,4.41,2.55-.3.52-10.2-3.48-10.37-3.19-.34.6,13.1,7.15,12.92,7.47-.38.65-10.07-5.32-10.44-4.68-.18.32,7.32,4,7.21,4.17" fill="none" stroke="#999" stroke-linecap="round" stroke-linejoin="round" stroke-width="1.17"/><path d="M258,26.92c15-1.56,23.05,5.11,16.76,28.41,2.65-9.14,5.32,407.55,4.16,403.17-1.2,10.88-7.32,26.74-23.12,26.75,2.89,2.82-121-149.62-124-143.08,3,7.78-115.55-3.91-116.93.46C8,346.78,0,329.85,3.84,326.44-.4,335.7,1.17,165.91,5.57,171.73c-2.4-7.1,3.24-14.06,10.19-5.37,0-10.2,120.32-3.87,119.78,4.52C135.9,163.39,261.72,35.19,258,26.92Zm250.5,203.6c2.87-.09,2.26,47-1.92,47.65,1.76,2.59,1.46,5.18-2,4.57-.89,0-173.85.9-173.71.91-4.14.36-4.12-4-4.44-6.16.29,1.24-.65-47.69-1.39-46.43.05-2.94,1.34-6.78,6.53-5.51-2.71.42,173.19-1.24,172.55-.13C508.91,225.07,511.24,228.92,508.51,230.52Z" fill="none" stroke="#666" stroke-width="2.93"/><path d="M259,29.61c10.66,1,13.9,12.85,23.3,14.27-6.24,4.9-2.42,409.73-7.8,414.78,0,8.89-2.58,21.88-13.81,24.48-6.44-2.57-125.91-144.51-128.46-134.23-5-5.21-112.68-5.64-119.77-6.75-1.08-2.71-6.72-1.67-9.8-13.25,1.24,1.78,3.31-156.73-1.26-155.47,6.37-2.25,10.1-14.76,10.28-16.6,1.8,2.24,120.05,3.62,124.91,4.4C137.62,167.38,261.91,32.81,259,29.61ZM509.41,231c-.38,0-4.09,46.9,2.16,46.73-4.15,2.34-3.64,4.42-10,5.11.1-.3-167.16.23-170.72.56-3.69-.33-2.4-3.62-5.81-4.78-1.58-.9,3.15-47.45-1.74-48.29,4.18-2.36,6.86-3.87,7.63-5.2.72,1,173.5.38,174,.17C508.31,226.26,511.1,228.56,509.41,231Z" fill="none" stroke="#4c4c4c" stroke-width="2.2"/></svg>